<?xml version="1.0" encoding="UTF-8"?>
<svg id="_图层_1" data-name="图层_1" xmlns="http://www.w3.org/2000/svg" version="1.1" viewBox="0 0 44 44">
  <!-- Generator: Adobe Illustrator 30.1.0, SVG Export Plug-In . SVG Version: 2.1.1 Build 136)  -->
  <defs>
    <style>
      .st0 {
        fill: #ad5af5;
      }

      .st1 {
        fill: #649bf4;
      }
    </style>
  </defs>
  <rect class="st0" x="18.29" y="18.29" width="7.42" height="7.42" transform="translate(-9.11 22) rotate(-45)"/>
  <polygon class="st0" points="17.75 12.55 13.6 8.4 22 0 30.4 8.4 26.25 12.55 22 8.3 17.75 12.55"/>
  <polygon class="st0" points="8.4 30.4 0 22 8.4 13.6 12.55 17.75 8.3 22 12.55 26.25 8.4 30.4"/>
  <polygon class="st0" points="22 44 13.6 35.6 17.75 31.45 22 35.7 26.25 31.45 30.4 35.6 22 44"/>
  <path class="st1" d="M41.95,16.3c-1.37-1.37-3.02-2.05-4.95-2.05s-3.58.68-4.95,2.05c-1.37,1.37-2.05,3.02-2.05,4.95,0,1.6.47,3.01,1.4,4.22.93,1.22,2.13,2.04,3.6,2.48v9.3l3,3,4-4-3-3,3-3-2.5-2.5c1.3-.5,2.38-1.33,3.23-2.5.85-1.17,1.27-2.5,1.27-4,0-1.93-.68-3.58-2.05-4.95ZM38.42,22.47c-.38.38-.86.58-1.42.58s-1.04-.19-1.42-.58c-.38-.38-.58-.86-.58-1.42s.19-1.04.58-1.42c.38-.38.86-.58,1.42-.58s1.04.19,1.42.58c.38.38.58.86.58,1.42s-.19,1.04-.58,1.42Z"/>
</svg>