<?xml version="1.0" encoding="UTF-8"?>
<svg id="_图层_1" data-name="图层_1" xmlns="http://www.w3.org/2000/svg" version="1.1" viewBox="0 0 798 798">
  <!-- Generator: Adobe Illustrator 30.1.0, SVG Export Plug-In . SVG Version: 2.1.1 Build 136)  -->
  <defs>
    <style>
      .st0 {
        fill: #e66f08;
      }
    </style>
  </defs>
  <path class="st0" d="M436.2,797.99H1.36c-1.08-10.67-.55-22.38-1.36-33.33l34.35.6c.36-27.54-5.69-65.26,33.4-66.91,0,0,301.72,0,301.72,0,38.72,1.65,32.21,39.34,35.37,66.91l33.01,1.47-1.65,31.26Z"/>
  <path class="st0" d="M306.91,439.96c16.66,9.6,23.18,28.05,14.65,44.87-7.73,15.24-28.08,23.64-44.33,14.27l-205.86-118.79c-15.97-9.21-19.89-30.15-11.03-44.79,9.46-15.63,29.08-20.94,45.45-11.51l201.12,115.95Z"/>
  <path class="st0" d="M798,518.67v2c0,13.33-12.73,37.48-25.68,42.86-19.13,7.96-35.7,8.01-52.62-2.68l-352-222.39-42.23,72.49-202.44-116.86,116.91-202.4,202.53,116.78-41.82,72.7,372.79,195.71c15.4,9.33,22.96,24.76,24.56,41.79Z"/>
  <path class="st0" d="M491.41,120.47c16.96,9.79,23.43,28.77,14.28,45.57-8.76,16.09-29.12,22.31-45.79,12.67L255.9,60.84c-16.15-9.33-19.84-30.72-10.69-45.32,10.16-16.23,30-19.79,46.32-10.37l199.88,115.33Z"/>
</svg>