<?xml version="1.0" encoding="UTF-8"?>
<svg id="_图层_1" data-name="图层_1" xmlns="http://www.w3.org/2000/svg" version="1.1" viewBox="0 0 24 24">
  <!-- Generator: Adobe Illustrator 30.1.0, SVG Export Plug-In . SVG Version: 2.1.1 Build 136)  -->
  <defs>
    <style>
      .st0 {
        fill: #f7a900;
      }
    </style>
  </defs>
  <path class="st0" d="M23.56,14.25c-.29-.81-.71-1.54-1.25-2.19l-4.61-5.53,3.26-6.53H3.02l3.26,6.53L1.68,12.06c-.54.65-.95,1.38-1.24,2.18-.29.81-.44,1.64-.44,2.49,0,2.04.7,3.76,2.1,5.16,1.4,1.4,3.12,2.1,5.16,2.1h9.47c2.02,0,3.73-.7,5.15-2.1,1.41-1.4,2.12-3.12,2.12-5.16,0-.85-.15-1.68-.44-2.49ZM16.17,2.96l-1.15,2.3h-6.05l-1.16-2.3h8.35ZM19.79,19.79c-.83.83-1.85,1.25-3.06,1.25H7.27c-1.2,0-2.22-.42-3.06-1.25-.83-.83-1.25-1.85-1.25-3.06,0-.5.09-1,.27-1.48.18-.48.43-.92.75-1.3l4.81-5.73h6.47l4.78,5.76c.32.38.57.81.75,1.28s.27.96.27,1.47c0,1.2-.42,2.22-1.25,3.06Z"/>
  <path class="st0" d="M11.38,19.82v-1.23c-.56-.13-1.03-.38-1.4-.74-.37-.36-.64-.87-.8-1.51l1.42-.54c.13.48.32.83.58,1.04s.58.32.97.32c.35,0,.63-.06.83-.19s.3-.33.3-.61c0-.26-.11-.48-.32-.66s-.68-.38-1.4-.59c-.76-.23-1.29-.54-1.6-.93s-.47-.85-.47-1.38c0-.56.18-1.03.55-1.41s.81-.62,1.33-.72v-1.2h1.31v1.2c.5.11.91.32,1.24.62s.57.68.73,1.13l-1.4.58c-.1-.28-.26-.49-.46-.65s-.47-.24-.8-.24c-.34,0-.59.06-.74.19s-.23.28-.23.46c0,.24.1.43.31.58s.67.33,1.39.54c.67.2,1.19.52,1.55.94s.54.93.54,1.52c0,.69-.2,1.22-.61,1.59-.41.37-.91.6-1.52.71v1.2h-1.31Z"/>
</svg>