<?xml version="1.0" encoding="UTF-8"?>
<svg id="_图层_1" xmlns="http://www.w3.org/2000/svg" xmlns:xlink="http://www.w3.org/1999/xlink" version="1.1" viewBox="0 0 48 48">
  <!-- Generator: Adobe Illustrator 30.1.0, SVG Export Plug-In . SVG Version: 2.1.1 Build 136)  -->
  <defs>
    <style>
      .st0 {
        fill: url(#_未命名的渐变_9);
      }

      .st1 {
        fill: #4083f2;
      }

      .st2 {
        fill: #22bfde;
      }

      .st3 {
        fill: #9f40f2;
      }
    </style>
    <linearGradient id="_未命名的渐变_9" data-name="未命名的渐变 9" x1=".88" y1="14.63" x2="47.16" y2="14.63" gradientTransform="translate(0 50) scale(1 -1)" gradientUnits="userSpaceOnUse">
      <stop offset=".3" stop-color="#9f40f2"/>
      <stop offset=".71" stop-color="#22bfde"/>
    </linearGradient>
  </defs>
  <path class="st0" d="M46.88,24.99c-.75-1.5-1.65-2.25-2.7-2.25h-7.69c-.62,0-1.2.31-1.75.93s-1.02,1.48-1.42,2.58c-1.09,3.07-2.45,5.45-4.09,7.14-1.64,1.68-3.38,2.53-5.24,2.53s-3.6-.84-5.24-2.53c-1.64-1.68-2.98-4.06-4.04-7.14-.4-1.1-.88-1.96-1.45-2.58-.56-.62-1.15-.93-1.77-.93H3.82c-1.05,0-1.95.75-2.7,2.25S0,28.3,0,30.43v17.57h14.18v-13.07c2,2.31,3.3,3.46,5.19,4.43,1.96,1.01,2.83,1.28,4.65,1.31,1.77.03,2.9-.18,4.88-1.31,1.86-1.06,3.23-2.2,4.91-4.43v13.07h14.18v-17.57c0-2.12-.37-3.93-1.12-5.44h0Z"/>
  <path class="st1" d="M24,31.85c-1.27,0-2.5-.52-3.68-1.57s-1.87-2.45-2.6-4.28c-.58-1.46-1.06-2.49-1.88-3.71-.68-1-1.76-2.02-2.7-2.34,1.05-1.9,2.12-2.83,4.37-3.84,2.25-1.01,4.53-1.36,6.5-1.36s4.17.35,6.44,1.36c2.27,1.01,3.24,1.99,4.3,3.89-.95.32-1.66,1.26-2.34,2.34-.64,1.02-1.21,2.16-1.8,3.61-.73,1.84-1.68,3.28-2.86,4.32-1.18,1.05-2.43,1.57-3.74,1.57h-.01Z"/>
  <path class="st3" d="M6.55,19.55c-1.64,0-3.05-.59-4.23-1.77-1.18-1.18-1.77-2.59-1.77-4.23s.59-3.09,1.77-4.25c1.18-1.16,2.59-1.75,4.23-1.75s3.09.58,4.25,1.75c1.16,1.16,1.75,2.58,1.75,4.25s-.58,3.05-1.75,4.23c-1.16,1.18-2.58,1.77-4.25,1.77Z"/>
  <path class="st2" d="M41.45,19.55c-1.64,0-3.05-.59-4.23-1.77s-1.77-2.59-1.77-4.23.59-3.09,1.77-4.25,2.59-1.75,4.23-1.75,3.09.58,4.25,1.75,1.75,2.58,1.75,4.25-.58,3.05-1.75,4.23c-1.16,1.18-2.58,1.77-4.25,1.77Z"/>
  <path class="st1" d="M24,12c-1.64,0-3.05-.59-4.23-1.77s-1.77-2.59-1.77-4.23.59-3.09,1.77-4.25S22.36,0,24,0s3.09.58,4.25,1.75c1.16,1.17,1.75,2.58,1.75,4.25s-.58,3.05-1.75,4.23-2.58,1.77-4.25,1.77Z"/>
</svg>