<?xml version="1.0" encoding="UTF-8"?>
<svg id="_图层_1" data-name="图层_1" xmlns="http://www.w3.org/2000/svg" version="1.1" viewBox="0 0 24 24">
  <!-- Generator: Adobe Illustrator 30.1.0, SVG Export Plug-In . SVG Version: 2.1.1 Build 136)  -->
  <defs>
    <style>
      .st0 {
        fill: #d0e1fa;
      }

      .st1 {
        fill: #1871e6;
      }
    </style>
  </defs>
  <rect class="st0" x="2.68" y="2.97" width="18.65" height="12.49"/>
  <path class="st1" d="M21.32,0H2.68c-.74,0-1.37.29-1.89.87-.52.58-.78,1.28-.78,2.1v12.49c0,.82.26,1.52.78,2.1.52.58,1.15.87,1.89.87h6.87v2.61h-2.35v2.97h9.62v-2.97h-2.35v-2.61h6.87c.74,0,1.37-.29,1.89-.87.52-.58.78-1.28.78-2.1V2.97c0-.82-.26-1.52-.78-2.1-.52-.58-1.15-.87-1.89-.87ZM21.32,15.46H2.68V2.97h18.65v12.49Z"/>
</svg>