<?xml version="1.0" encoding="UTF-8"?>
<svg id="_图层_1" data-name="图层_1" xmlns="http://www.w3.org/2000/svg" version="1.1" viewBox="0 0 41.9 41.29">
  <!-- Generator: Adobe Illustrator 30.1.0, SVG Export Plug-In . SVG Version: 2.1.1 Build 136)  -->
  <defs>
    <style>
      .st0 {
        fill: #f8d0cd;
      }

      .st1 {
        fill: #d72e23;
      }

      .st2 {
        fill: #d0e1fa;
      }

      .st3 {
        fill: #e7d0fb;
      }

      .st4 {
        fill: #1871e6;
      }

      .st5 {
        fill: #fcefc1;
      }

      .st6 {
        fill: #9132e4;
      }

      .st7 {
        fill: #f7a900;
      }
    </style>
  </defs>
  <rect class="st6" x="19.5" width="21" height="19"/>
  <rect class="st7" y="24.19" width="19.5" height="14.5"/>
  <rect class="st1" width="16.5" height="19"/>
  <rect class="st3" x="22.5" y="3" width="15" height="13"/>
  <rect class="st5" x="3" y="27.19" width="13.5" height="8.5"/>
  <rect class="st0" x="3" y="2.61" width="10.5" height="13"/>
  <path class="st4" d="M40.22,30.99c0-.75-.1-1.48-.31-2.17l1.99-1.57-1.83-2.88-2.2,1.05c-.59-.49-1.21-.93-1.86-1.31-.65-.38-1.34-.68-2.07-.89l-.31-2.57h-3.14l-.26,2.57c-.73.21-1.42.51-2.07.89-.65.38-1.27.82-1.86,1.31l-2.2-1.05-1.83,2.88,1.99,1.57c-.21.7-.31,1.42-.31,2.17s.1,1.48.31,2.17l-1.99,1.57,1.83,2.83,2.2-1.05c.56.52,1.17.98,1.83,1.36.66.38,1.36.68,2.1.89l.26,2.52h3.14l.31-2.52c.73-.21,1.43-.51,2.1-.89.66-.38,1.28-.84,1.83-1.36l2.2,1.05,1.83-2.83-1.99-1.57c.21-.7.31-1.42.31-2.17ZM35.82,34.74c-1.05,1.05-2.31,1.57-3.78,1.57s-2.73-.52-3.77-1.57c-1.05-1.05-1.57-2.31-1.57-3.78s.52-2.73,1.57-3.77c1.05-1.05,2.31-1.57,3.78-1.57s2.73.52,3.77,1.57c1.05,1.05,1.57,2.31,1.57,3.78s-.52,2.73-1.57,3.77Z"/>
  <path class="st2" d="M32.05,25.62c-1.47,0-2.73.52-3.78,1.57-1.05,1.05-1.57,2.3-1.57,3.77s.52,2.73,1.57,3.78c1.05,1.05,2.3,1.57,3.77,1.57s2.73-.52,3.78-1.57c1.05-1.05,1.57-2.3,1.57-3.77s-.52-2.73-1.57-3.78c-1.05-1.05-2.3-1.57-3.77-1.57Z"/>
</svg>