<?xml version="1.0" encoding="UTF-8"?>
<svg id="_图层_1" data-name="图层_1" xmlns="http://www.w3.org/2000/svg" version="1.1" viewBox="0 0 36.43 42.43">
  <!-- Generator: Adobe Illustrator 30.1.0, SVG Export Plug-In . SVG Version: 2.1.1 Build 136)  -->
  <defs>
    <style>
      .st0 {
        fill: #1f1f1f;
      }
    </style>
  </defs>
  <path class="st0" d="M10.95,35.44c-1.08,0-2.01-.39-2.79-1.17-.78-.78-1.17-1.71-1.17-2.79V3.99c0-1.09.39-2.03,1.17-2.81.78-.78,1.71-1.18,2.79-1.18h21.49c1.09,0,2.03.39,2.81,1.18.78.78,1.18,1.72,1.18,2.81v27.49c0,1.08-.39,2.01-1.18,2.79-.78.78-1.72,1.17-2.81,1.17,0,0-21.49,0-21.49,0ZM10.95,31.48h21.49V3.99H10.95v27.49ZM3.99,42.43c-1.09,0-2.03-.39-2.81-1.18-.78-.78-1.18-1.72-1.18-2.81V6.99h3.99v31.45h25.45v3.99s-25.45,0-25.45,0ZM10.95,31.48V3.99v27.49Z"/>
</svg>