<?xml version="1.0" encoding="UTF-8"?>
<svg id="_图层_1" data-name="图层_1" xmlns="http://www.w3.org/2000/svg" version="1.1" viewBox="0 0 36 36">
  <!-- Generator: Adobe Illustrator 30.1.0, SVG Export Plug-In . SVG Version: 2.1.1 Build 136)  -->
  <defs>
    <style>
      .st0, .st1 {
        fill: #f88e3c;
      }

      .st1 {
        stroke: #f88e3c;
        stroke-miterlimit: 10;
        stroke-width: 2px;
      }
    </style>
  </defs>
  <path class="st1" d="M27,22.8c-3.82,0-7.08-1.34-9.77-4.03-2.69-2.69-4.03-5.94-4.03-9.77,0-.8.08-1.66.25-2.58.17-.92.47-1.96.9-3.12-3.27.9-5.97,2.73-8.12,5.48-2.15,2.75-3.22,5.82-3.22,9.22,0,4.17,1.46,7.71,4.38,10.62s6.46,4.38,10.62,4.38c3.63,0,6.8-1.12,9.5-3.38s4.38-4.89,5.05-7.92c-.83.37-1.73.64-2.68.83-.96.18-1.91.27-2.87.27Z"/>
  <path class="st0" d="M35.9,16.3c-1.07,1.1-2.38,1.96-3.95,2.58s-3.22.92-4.95.92c-3,0-5.55-1.05-7.65-3.15-2.1-2.1-3.15-4.65-3.15-7.65,0-1.73.33-3.38,1-4.95.67-1.57,1.6-2.88,2.8-3.95-.47-.03-.85-.06-1.15-.07C18.55,0,18.27,0,18,0,13,0,8.75,1.75,5.25,5.25S0,13,0,18s1.75,9.25,5.25,12.75,7.75,5.25,12.75,5.25,9.25-1.75,12.75-5.25,5.25-7.75,5.25-12.75c0-.23,0-.47-.03-.72s-.04-.58-.07-.98ZM27.5,29.63c-2.7,2.25-5.87,3.38-9.5,3.38-4.17,0-7.71-1.46-10.62-4.38s-4.38-6.46-4.38-10.62c0-3.4,1.08-6.47,3.22-9.22,2.15-2.75,4.86-4.58,8.12-5.48-.43,1.17-.73,2.21-.9,3.12-.17.92-.25,1.78-.25,2.58,0,3.82,1.34,7.08,4.03,9.77,2.69,2.69,5.94,4.03,9.77,4.03.96,0,1.91-.09,2.87-.27.96-.18,1.85-.46,2.68-.83-.67,3.03-2.35,5.67-5.05,7.92Z"/>
</svg>