<?xml version="1.0" encoding="UTF-8"?>
<svg id="_图层_1" data-name="图层_1" xmlns="http://www.w3.org/2000/svg" version="1.1" viewBox="0 0 44 44">
  <!-- Generator: Adobe Illustrator 30.1.0, SVG Export Plug-In . SVG Version: 2.1.1 Build 136)  -->
  <defs>
    <style>
      .st0 {
        stroke: #f7a900;
        stroke-miterlimit: 10;
        stroke-width: 2px;
      }

      .st0, .st1 {
        fill: #f7a900;
      }
    </style>
  </defs>
  <path class="st0" d="M22,15c-1.93,0-3.58.68-4.95,2.05-1.37,1.37-2.05,3.02-2.05,4.95s.68,3.58,2.05,4.95c1.37,1.37,3.02,2.05,4.95,2.05s3.58-.68,4.95-2.05c1.37-1.37,2.05-3.02,2.05-4.95s-.68-3.58-2.05-4.95c-1.37-1.37-3.02-2.05-4.95-2.05Z"/>
  <rect class="st1" x="19.5" y="36" width="5" height="8"/>
  <rect class="st1" x="36" y="19.5" width="8" height="5"/>
  <path class="st1" d="M29.08,14.92c-1.95-1.95-4.31-2.92-7.08-2.92s-5.12.97-7.08,2.92-2.92,4.31-2.92,7.08.97,5.12,2.92,7.08,4.31,2.92,7.08,2.92,5.12-.97,7.08-2.92,2.92-4.31,2.92-7.08-.97-5.12-2.92-7.08ZM26.95,26.95c-1.37,1.37-3.02,2.05-4.95,2.05s-3.58-.68-4.95-2.05c-1.37-1.37-2.05-3.02-2.05-4.95s.68-3.58,2.05-4.95c1.37-1.37,3.02-2.05,4.95-2.05s3.58.68,4.95,2.05c1.37,1.37,2.05,3.02,2.05,4.95s-.68,3.58-2.05,4.95Z"/>
  <rect class="st1" x="19.5" width="5" height="8"/>
  <rect class="st1" y="19.5" width="8" height="5"/>
  <rect class="st1" x="7.08" y="5.57" width="5" height="8" transform="translate(-3.97 9.58) rotate(-45)"/>
  <rect class="st1" x="30.4" y="7.1" width="8" height="5" transform="translate(3.29 27.14) rotate(-45)"/>
  <rect class="st1" x="31.9" y="30.37" width="5" height="8" transform="translate(-14.23 34.39) rotate(-45)"/>
  <rect class="st1" x="5.62" y="31.88" width="8" height="5" transform="translate(-21.49 16.87) rotate(-45)"/>
</svg>