<?xml version="1.0" encoding="UTF-8"?>
<svg id="_图层_1" data-name="图层_1" xmlns="http://www.w3.org/2000/svg" version="1.1" viewBox="0 0 48 48">
  <!-- Generator: Adobe Illustrator 30.1.0, SVG Export Plug-In . SVG Version: 2.1.1 Build 136)  -->
  <defs>
    <style>
      .st0 {
        fill: #1871e6;
      }

      .st1 {
        fill: #9132e4;
      }
    </style>
  </defs>
  <path class="st0" d="M44.09,48l-12.38-12.44c-1.64,1.23-3.49,2.19-5.55,2.9-2.06.71-4.16,1.07-6.3,1.07-3.64,0-6.97-.91-9.97-2.72-3.01-1.81-5.37-4.18-7.08-7.09h6.89c1.3,1.33,2.82,2.39,4.57,3.16,1.74.77,3.61,1.16,5.6,1.16,3.95,0,7.31-1.39,10.09-4.18s4.16-6.14,4.16-10.07-1.38-7.34-4.14-10.1c-2.76-2.77-6.13-4.15-10.11-4.15s-7.18,1.33-9.94,3.98c-2.76,2.65-4.2,5.88-4.3,9.68H.06c.15-5.34,2.13-9.88,5.95-13.61C9.82,1.87,14.44,0,19.85,0s10.12,1.93,13.99,5.78,5.81,8.53,5.81,14.01c0,2.1-.37,4.19-1.1,6.27-.73,2.08-1.71,3.96-2.93,5.64l12.38,12.38-3.91,3.91Z"/>
  <polygon class="st1" points="18.29 29.37 14.65 17.37 11.65 25.9 0 25.9 0 22.44 9.23 22.44 13.04 11.48 16.5 11.48 20.02 23.25 22.5 15.52 25.96 15.52 29.42 22.44 31.15 22.44 31.15 25.9 27.29 25.9 24.58 20.48 21.69 29.37 18.29 29.37"/>
</svg>