<?xml version="1.0" encoding="UTF-8"?>
<svg id="_图层_1" data-name="图层_1" xmlns="http://www.w3.org/2000/svg" version="1.1" viewBox="0 0 48 48">
  <!-- Generator: Adobe Illustrator 30.1.0, SVG Export Plug-In . SVG Version: 2.1.1 Build 136)  -->
  <defs>
    <style>
      .st0 {
        fill: #fac732;
        stroke: #fac732;
        stroke-miterlimit: 10;
      }

      .st1 {
        fill: #649bf4;
      }
    </style>
  </defs>
  <path class="st1" d="M16.52,44.06l-1.09-6.94c-.45-.14-.96-.37-1.53-.7s-1.04-.65-1.42-.96l-6.47,3L0,27.86l5.9-4.3c-.03-.21-.06-.46-.08-.75s-.03-.54-.03-.75,0-.46.03-.75.04-.54.08-.75L0,16.21,6.01,5.7l6.59,2.95c.34-.28.78-.57,1.33-.88s1.05-.54,1.5-.67l1.09-7.09h11.81l1.09,7.04c.44.17.95.41,1.52.7.57.29,1.05.59,1.43.9l6.52-2.95,5.95,10.51-6.48,4.56v.05-.05h-4.35c0-.24-.04-.58-.13-1.01-.09-.43-.2-.89-.34-1.38l4.82-3.47-1.66-3.06-5.44,2.38c-.79-.97-1.73-1.78-2.79-2.43-1.07-.66-2.23-1.05-3.49-1.19l-.71-5.7h-3.73l-.67,5.7c-1.24.21-2.4.63-3.49,1.27-1.09.64-2.05,1.42-2.88,2.36l-5.39-2.38-1.66,3.06,4.71,3.42c-.14.62-.26,1.24-.36,1.86s-.16,1.24-.16,1.86.05,1.25.16,1.89.22,1.25.36,1.84l-4.71,3.42,1.66,3.06,5.39-2.38c.86.93,1.86,1.7,3,2.33,1.14.62,2.33,1.09,3.57,1.4v10.46h-3.57Z"/>
  <path class="st1" d="M22.42,16.64c-2.98,0-5.39,2.41-5.39,5.39s2.41,5.39,5.39,5.39,5.39-2.41,5.39-5.39-2.41-5.39-5.39-5.39ZM22.42,23.93c-1.05,0-1.9-.85-1.9-1.9s.85-1.9,1.9-1.9,1.9.85,1.9,1.9-.85,1.9-1.9,1.9Z"/>
  <path class="st0" d="M43.58,39.14v-4.57h-6.61v-2.3h3.85v-8.28h-10.22v8.28h3.85v2.3h-6.61v4.57h-3.85v8.28h10.06v-8.28h-3.67v-2.3h10.65v2.3h-3.67v8.28h10.06v-8.28h-3.85ZM31.53,41.44v3.68h-4.99v-3.68h4.99ZM33.15,29.98v-3.68h5.14v3.68h-5.14ZM44.89,45.12h-4.99v-3.68h4.99v3.68Z"/>
</svg>