<?xml version="1.0" encoding="UTF-8"?>
<svg id="_图层_1" data-name="图层_1" xmlns="http://www.w3.org/2000/svg" xmlns:xlink="http://www.w3.org/1999/xlink" version="1.1" viewBox="0 0 48 48">
  <!-- Generator: Adobe Illustrator 30.1.0, SVG Export Plug-In . SVG Version: 2.1.1 Build 136)  -->
  <defs>
    <style>
      .st0 {
        fill: #4083f2;
      }

      .st1 {
        fill: url(#_未命名的渐变_23);
      }
    </style>
    <linearGradient id="_未命名的渐变_23" data-name="未命名的渐变 23" x1="13.1" y1="21.3" x2="32.23" y2="21.3" gradientUnits="userSpaceOnUse">
      <stop offset="0" stop-color="#e84133"/>
      <stop offset="1" stop-color="#9f40f2"/>
    </linearGradient>
  </defs>
  <path class="st0" d="M7.84,48v-10.45c-2.16-2.08-3.83-4.5-5.03-7.24s-1.79-5.6-1.79-8.55c0-6.04,2.11-11.18,6.32-15.41C11.56,2.12,16.68,0,22.7,0c5.02,0,9.47,1.5,13.35,4.49,3.88,2.99,6.43,6.85,7.64,11.59l3.18,12.72c.23.87.08,1.64-.45,2.3s-1.23.99-2.11.99h-4.37v6.02c0,1.51-.52,2.77-1.56,3.8-1.04,1.03-2.32,1.54-3.84,1.54h-3.69v4.54h-5.4v-9.88h9.09v-11.36h6.31l-2.33-9.37c-.91-3.48-2.84-6.35-5.79-8.61s-6.28-3.38-9.97-3.38c-4.55,0-8.42,1.58-11.61,4.73-3.19,3.16-4.78,6.99-4.78,11.5,0,2.31.48,4.54,1.44,6.68.96,2.14,2.32,4.01,4.07,5.6l1.31,1.24v12.85h-5.34Z"/>
  <path class="st1" d="M30.57,21.3c0-.66-.11-1.31-.33-1.93l1.99-1.59-1.93-3.19-2.71.93c-.36-.34-.79-.65-1.27-.92-.48-.27-.97-.47-1.46-.61l-.2-2.92h-3.99l-.2,2.92c-.49.13-.97.34-1.45.61-.48.27-.9.58-1.26.92l-2.67-.93-1.99,3.19,1.99,1.59c-.22.62-.33,1.26-.33,1.93s.11,1.31.33,1.93l-1.99,1.59,1.99,3.19,2.67-.93c.35.36.75.68,1.22.97.46.29.96.47,1.49.56l.2,2.92h3.99l.2-2.92c.53-.09,1.03-.28,1.5-.56.47-.29.88-.61,1.23-.97l2.72.93,1.93-3.19-1.99-1.59c.22-.62.33-1.26.33-1.93ZM25.43,24.06c-.76.76-1.67,1.14-2.76,1.14s-2-.38-2.76-1.13c-.76-.76-1.14-1.67-1.14-2.76s.38-2,1.13-2.76c.76-.76,1.67-1.14,2.76-1.14s2,.38,2.76,1.13c.76.76,1.14,1.67,1.14,2.76s-.38,2-1.13,2.76Z"/>
</svg>