<?xml version="1.0" encoding="UTF-8"?>
<svg id="_图层_1" data-name="图层_1" xmlns="http://www.w3.org/2000/svg" version="1.1" viewBox="0 0 24 24">
  <!-- Generator: Adobe Illustrator 30.1.0, SVG Export Plug-In . SVG Version: 2.1.1 Build 136)  -->
  <defs>
    <style>
      .st0 {
        fill: #e66f08;
      }

      .st1 {
        fill: #1871e6;
      }

      .st2 {
        fill: #1f1f1f;
      }
    </style>
  </defs>
  <path class="st1" d="M19.18,13.38l2.71,2.7v5.22c0,.75-.26,1.38-.79,1.91s-1.17.79-1.91.79H2.71c-.75,0-1.39-.26-1.91-.79s-.79-1.16-.79-1.91V4.87c0-.75.26-1.38.79-1.91s1.17-.79,1.91-.79h6.45c-.2.39-.35.83-.45,1.31-.11.48-.17.94-.2,1.39H2.71v16.43h16.48v-7.92Z"/>
  <path class="st0" d="M20.24,8.07c.23-.4.42-.84.57-1.31.15-.47.22-.97.22-1.48,0-1.47-.51-2.71-1.54-3.74-1.03-1.03-2.27-1.54-3.74-1.54s-2.71.51-3.74,1.54c-1.03,1.03-1.54,2.27-1.54,3.74s.51,2.71,1.54,3.74c1.03,1.03,2.27,1.54,3.74,1.54.52,0,1.01-.07,1.48-.22.47-.15.91-.34,1.31-.57l3.76,3.76,1.69-1.69-3.76-3.76ZM17.79,7.32c-.56.56-1.24.83-2.04.83s-1.48-.28-2.04-.83c-.56-.56-.83-1.24-.83-2.04s.28-1.48.83-2.04c.56-.56,1.24-.83,2.04-.83s1.48.28,2.04.83c.56.56.83,1.24.83,2.04s-.28,1.48-.83,2.04Z"/>
  <polygon class="st2" points="2.62 13.04 2.62 20.71 2.62 4.78 2.62 12.85 2.62 12.51 2.62 13.04"/>
  <rect class="st1" x="5.03" y="11.82" width="11.84" height="2.54"/>
  <rect class="st1" x="5.03" y="16.22" width="11.84" height="2.54"/>
  <rect class="st1" x="5.03" y="7.42" width="4.22" height="2.54"/>
</svg>