<?xml version="1.0" encoding="UTF-8"?>
<svg id="_图层_1" data-name="图层_1" xmlns="http://www.w3.org/2000/svg" version="1.1" viewBox="0 0 48 48">
  <!-- Generator: Adobe Illustrator 30.1.0, SVG Export Plug-In . SVG Version: 2.1.1 Build 136)  -->
  <defs>
    <style>
      .st0 {
        fill: #1871e6;
      }
    </style>
  </defs>
  <path class="st0" d="M41.71,25.04c.03-.36.05-.7.05-1.02s-.02-.67-.05-1.05c-.03-.38-.07-.73-.13-1.05l6.42-4.62-6.04-10.77-7.02,3.23c-.49-.43-1.09-.84-1.8-1.22-.71-.38-1.37-.68-1.97-.91l-1.18-7.62h-11.97l-1.18,7.68c-.6.19-1.24.48-1.94.88-.69.4-1.28.79-1.77,1.19l-7.06-3.23L0,17.3l6.39,4.74c-.06.28-.09.61-.11.99-.02.38-.03.71-.03.99s0,.61.03.99c.02.38.06.71.11.99L0,30.7l6.08,10.84,6.99-3.26c.5.41,1.11.83,1.81,1.24.71.41,1.36.72,1.95.92l1.18,7.56h11.97l1.18-7.56c.63-.19,1.29-.49,1.97-.91.68-.42,1.27-.83,1.77-1.25l7.02,3.26,6.08-10.84-6.42-4.65c.05-.32.1-.66.13-1.02ZM41.92,31.96l-2,3.74-6.08-2.66c-.92.99-1.96,1.82-3.12,2.47-1.16.66-2.38,1.14-3.66,1.45l-.84,6.45h-4.49l-.77-6.42c-1.3-.31-2.54-.8-3.71-1.48-1.17-.68-2.23-1.5-3.16-2.47l-6.01,2.66-2.03-3.74,5.29-3.9c-.15-.66-.28-1.32-.39-2.01-.11-.68-.16-1.36-.16-2.04s.05-1.35.16-2.02c.11-.67.24-1.34.39-2.02l-5.29-3.9,2.03-3.74,6.01,2.66c.9-1.01,1.94-1.86,3.11-2.55,1.17-.69,2.43-1.16,3.77-1.41l.77-6.42h4.53l.8,6.42c1.36.17,2.61.61,3.77,1.32,1.15.71,2.17,1.59,3.05,2.63l6.04-2.66,2.03,3.74-5.36,3.93c.19.68.33,1.35.42,2.01.09.66.13,1.33.13,2.01s-.05,1.35-.16,2.01c-.11.66-.24,1.33-.39,2.01l5.32,3.93Z"/>
  <path class="st0" d="M23.94,31.55c2.06,0,3.82-.73,5.27-2.2s2.18-3.24,2.18-5.33-.73-3.86-2.18-5.33-3.21-2.2-5.27-2.2-3.82.73-5.27,2.2-2.18,3.24-2.18,5.33.73,3.86,2.18,5.33,3.21,2.2,5.27,2.2Z"/>
</svg>