<?xml version="1.0" encoding="UTF-8"?>
<svg id="_图层_1" data-name="图层_1" xmlns="http://www.w3.org/2000/svg" version="1.1" viewBox="0 0 102 102">
  <!-- Generator: Adobe Illustrator 30.1.0, SVG Export Plug-In . SVG Version: 2.1.1 Build 136)  -->
  <defs>
    <style>
      .st0 {
        fill: none;
      }

      .st1 {
        fill: #4083f2;
      }

      .st2 {
        fill: #22bfde;
      }

      .st3 {
        fill: #f87915;
      }

      .st4 {
        fill: #9f40f2;
      }
    </style>
  </defs>
  <circle class="st1" cx="18.75" cy="24.01" r="9.05"/>
  <circle class="st4" cx="83.25" cy="24.01" r="9.05"/>
  <path class="st1" d="M35.3,51.01h31.4"/>
  <g>
    <circle class="st2" cx="50.98" cy="10.53" r="10.54" transform="translate(-1.06 11.99) rotate(-13.28)"/>
    <path class="st2" d="M66.34,51.47h3.08s-.11-18.01-.11-18.01c-.03-4.14-3.95-9.47-8.17-10.97-.69.76-1.36,1.34-2.05,1.9-1.19.85-2.58,1.53-4.04,1.95-.95.27-1.95.53-2.94.67-.75.11-1.33.11-2.2,0-1.15-.12-2.06-.32-2.94-.67-1.34-.53-2.68-1.07-3.83-1.96-.91-.7-1.48-1.27-2.35-2.24-4.22,1.5-8.42,6.92-8.44,11.06l-.11,18h3.08c0-.07.01-.13.02-.19h30.99c0,.12.02.26.03.45ZM35.26,34.7v2.03s0-2.02,0-2.02c0,0,0,0,0-.01Z"/>
  </g>
  <path class="st0" d="M33.42,96s-.08,0-.12,0c.04,0,.08,0,.12,0Z"/>
  <path class="st0" d="M68.62,96s-.05,0-.07,0c.02,0,.05,0,.07,0Z"/>
  <path class="st0" d="M72.46,72.83c.1-.02.2-.05.31-.05l3.3-.02h-3.48c-.05.03-.08.04-.13.07Z"/>
  <path class="st3" d="M74.59,49.53c.79,0,2.49.55,2.49,2.88,0,2.07-1.72,3.09-2.51,3.09H27.43c-1.65-.27-2.52-1.51-2.52-3.09,0-1.4.87-2.34,2.65-2.88"/>
  <path class="st1" d="M27.01,64.26v-5.02c-1.12-.14-2.14-.57-3-1.21-1.57-1.16-2.59-3.03-2.59-5.13s1.02-3.96,2.59-5.13c.86-.64,1.88-1.07,3-1.21l-.02-5.28c0-1.49-.67-2.97-1.43-4.25-.91.6-1.76,1.07-2.72,1.37-1.98.61-2.95.67-4.61.69-1.63.02-2.66-.2-4.57-1.11l-2.59-1.76c-.86,1.22-1.99,2.8-1.99,4.57l-.08,32.88c0,.35.29.5.18.83l-3.16-.02-.02-27.83c0-.79-2.36-1.18-2.86-1.24-.73-.09-2.71.41-3.12,1v55.59h5.06c.36-.34.81-.58.94-1.22v-19.8s21.75,0,21.75,0c0,0,0,16.09,0,16.09,0,2.93,2.89,4.93,5.37,4.93,2.87,0,5.79-1.98,5.79-4.93,0,0,.09-27.6.09-27.6-2-6.87-6.76-4.84-12-5.21Z"/>
  <path class="st0" d="M72.46,74.57c.1-.02.2-.05.31-.06l3.3-.02h-3.48c-.05.03-.08.05-.13.07Z"/>
  <path class="st4" d="M99.05,45.41c-.58,0-3.03.39-3.03,1.25l-.03,27.83-3.16.02c-.12-.34.18-.49.18-.83l-.08-32.88c0-1.8-1.12-3.29-2-4.61l-2.58,1.8c-2.37,1.16-7.15,1.46-9.18.41l-2.68-1.39c-.77,1.19-1.46,2.74-1.47,4.27l-.02,4.89c1.12.14,2.14.57,3,1.21,1.56,1.17,2.58,3.02,2.58,5.12s-1.02,3.96-2.59,5.13c-.86.64-1.88,1.07-3,1.21v5.42s-6.98.1-6.98.1c-2.3.03-4.94,2.56-4.94,5.24,0,0,0,27.46,0,27.46,0,1.59.97,2.87,2.15,3.76,3.4,2.57,8.3.66,9.02-3.76v-16.09h21.76v19.8c.12.64.58.88.93,1.22h5.06v-55.59c-.39-.54-2.29-1.01-2.95-1Z"/>
</svg>