<?xml version="1.0" encoding="UTF-8"?>
<svg id="_图层_1" data-name="图层_1" xmlns="http://www.w3.org/2000/svg" version="1.1" viewBox="0 0 46.3 32.3">
  <!-- Generator: Adobe Illustrator 30.1.0, SVG Export Plug-In . SVG Version: 2.1.1 Build 136)  -->
  <defs>
    <style>
      .st0 {
        fill: #fff;
      }
    </style>
  </defs>
  <path class="st0" d="M23.16,24.65c2.36,0,4.37-.83,6.02-2.48s2.48-3.66,2.48-6.03-.83-4.37-2.48-6.02-3.66-2.48-6.03-2.48-4.37.83-6.02,2.48-2.48,3.66-2.48,6.03.83,4.37,2.48,6.02,3.66,2.48,6.03,2.48ZM23.15,20.95c-1.33,0-2.47-.47-3.4-1.4s-1.4-2.07-1.4-3.4.47-2.47,1.4-3.4,2.07-1.4,3.4-1.4,2.47.47,3.4,1.4,1.4,2.07,1.4,3.4-.47,2.47-1.4,3.4-2.07,1.4-3.4,1.4ZM23.15,32.3c-5.13,0-9.77-1.5-13.9-4.5-4.13-3-7.22-6.88-9.25-11.65C2.03,11.38,5.12,7.5,9.25,4.5,13.38,1.5,18.02,0,23.15,0s9.77,1.5,13.9,4.5,7.22,6.88,9.25,11.65c-2.03,4.77-5.12,8.65-9.25,11.65s-8.77,4.5-13.9,4.5ZM23.15,28.15c4.02,0,7.7-1.09,11.06-3.28,3.36-2.18,5.92-5.09,7.69-8.73-1.77-3.63-4.33-6.54-7.69-8.73-3.36-2.18-7.04-3.28-11.06-3.28s-7.7,1.09-11.06,3.28c-3.36,2.18-5.94,5.09-7.74,8.73,1.8,3.63,4.38,6.54,7.74,8.73,3.36,2.18,7.04,3.28,11.06,3.28Z"/>
</svg>