<?xml version="1.0" encoding="UTF-8"?>
<svg id="_图层_1" data-name="图层_1" xmlns="http://www.w3.org/2000/svg" version="1.1" viewBox="0 0 48 48">
  <!-- Generator: Adobe Illustrator 30.1.0, SVG Export Plug-In . SVG Version: 2.1.1 Build 136)  -->
  <defs>
    <style>
      .st0 {
        fill: #fff;
      }

      .st1 {
        fill: #f7a900;
      }
    </style>
  </defs>
  <path class="st1" d="M.57,39.06L20.4,4.77c1.6-2.77,5.61-2.77,7.21,0l19.83,34.29c1.61,2.78-.4,6.25-3.6,6.25H4.17c-3.21,0-5.21-3.47-3.6-6.25Z"/>
  <rect class="st0" x="21.43" y="14.5" width="5.15" height="16.36"/>
  <path class="st0" d="M24.02,40.21c.77,0,1.44-.3,2.03-.89.58-.59.88-1.28.88-2.04s-.3-1.43-.89-1.98c-.59-.56-1.28-.83-2.04-.83s-1.44.28-2.03.85c-.58.57-.88,1.23-.88,2s.3,1.44.89,2.03c.59.58,1.28.88,2.04.88Z"/>
</svg>