<?xml version="1.0" encoding="UTF-8"?>
<svg id="_图层_1" data-name="图层_1" xmlns="http://www.w3.org/2000/svg" version="1.1" viewBox="0 0 24 24">
  <!-- Generator: Adobe Illustrator 30.1.0, SVG Export Plug-In . SVG Version: 2.1.1 Build 136)  -->
  <defs>
    <style>
      .st0 {
        fill: #1c8c3c;
      }

      .st1 {
        fill: #7e8489;
      }
    </style>
  </defs>
  <rect class="st0" x="7.39" y="5.92" width="10.41" height="2.54"/>
  <rect class="st0" x="7.39" y="9.63" width="10.41" height="2.54"/>
  <path class="st0" d="M10.78,24H3.85c-1.07,0-1.98-.37-2.73-1.12S0,21.22,0,20.15v-3.84h3.54V0h18.11v10.84c-.45-.07-.9-.06-1.36.01-.46.08-.9.22-1.32.45V2.68H6.22v13.64h7.37l-2.68,2.68H2.68v1.16c0,.33.11.61.34.84.23.23.5.34.84.34h6.93v2.68Z"/>
  <path class="st1" d="M23.86,15.43c-.1-.23-.23-.44-.4-.63l-1.09-1.09c-.19-.19-.4-.33-.63-.43-.23-.1-.48-.14-.73-.14-.23,0-.47.04-.7.13-.23.09-.44.22-.63.41l-6.54,6.51v3.81h3.81l6.51-6.51c.19-.19.33-.41.41-.65.09-.24.13-.48.13-.72s-.05-.47-.14-.7ZM16.16,22.1h-1.12v-1.12l3.56-3.53.56.53.53.56-3.53,3.56Z"/>
</svg>